<svg width="260" height="72" viewBox="0 0 260 72" fill="none" xmlns="http://www.w3.org/2000/svg">
<g clip-path="url(#clip0_0_473)">
<rect width="204" height="72" fill="#151515"/>
<path d="M36.62 44.18C35.2867 44.18 34.3233 43.9 33.73 43.34C33.1367 42.7733 32.8267 41.8333 32.8 40.52C32.7867 39.7933 32.7733 39.05 32.76 38.29C32.7533 37.53 32.75 36.7667 32.75 36C32.75 35.2267 32.7533 34.46 32.76 33.7C32.7733 32.94 32.7867 32.1933 32.8 31.46C32.8267 30.1533 33.1367 29.22 33.73 28.66C34.3233 28.1 35.2867 27.82 36.62 27.82C37.96 27.82 38.92 28.1 39.5 28.66C40.08 29.22 40.39 30.1533 40.43 31.46C40.45 32.2 40.4667 32.95 40.48 33.71C40.4933 34.47 40.5 35.2367 40.5 36.01C40.5 36.7767 40.4933 37.54 40.48 38.3C40.4667 39.0533 40.45 39.7933 40.43 40.52C40.39 41.8333 40.08 42.7733 39.5 43.34C38.92 43.9 37.96 44.18 36.62 44.18ZM36.62 42.07C37.0333 42.07 37.34 41.98 37.54 41.8C37.74 41.62 37.8433 41.35 37.85 40.99C37.8767 40.2367 37.8967 39.4367 37.91 38.59C37.9233 37.7367 37.93 36.87 37.93 35.99C37.93 35.1033 37.9233 34.2367 37.91 33.39C37.8967 32.5433 37.8767 31.7433 37.85 30.99C37.8433 30.6367 37.7367 30.3733 37.53 30.2C37.3233 30.02 37.02 29.93 36.62 29.93C36.22 29.93 35.9167 30.02 35.71 30.2C35.5033 30.3733 35.3933 30.6367 35.38 30.99C35.3533 31.7433 35.33 32.5433 35.31 33.39C35.2967 34.2367 35.29 35.1033 35.29 35.99C35.29 36.87 35.2967 37.7367 35.31 38.59C35.33 39.4367 35.3533 40.2367 35.38 40.99C35.3933 41.35 35.5033 41.62 35.71 41.8C35.9167 41.98 36.22 42.07 36.62 42.07ZM49.4146 44.18C48.0613 44.18 47.0913 43.9 46.5046 43.34C45.918 42.7733 45.6146 41.8333 45.5946 40.52C45.568 38.4467 45.5546 36.36 45.5546 34.26C45.5546 32.1533 45.568 30.0667 45.5946 28H48.1846C48.158 29.38 48.1413 30.81 48.1346 32.29C48.1346 33.7633 48.138 35.2367 48.1446 36.71C48.1513 38.1833 48.1613 39.61 48.1746 40.99C48.1746 41.3433 48.2813 41.6133 48.4946 41.8C48.708 41.98 49.0146 42.07 49.4146 42.07C49.8213 42.07 50.1246 41.98 50.3246 41.8C50.5313 41.6133 50.6346 41.3433 50.6346 40.99C50.648 39.61 50.658 38.1833 50.6646 36.71C50.678 35.2367 50.6813 33.7633 50.6746 32.29C50.6746 30.81 50.6613 29.38 50.6346 28H53.2146C53.248 30.0667 53.2646 32.1533 53.2646 34.26C53.2646 36.36 53.248 38.4467 53.2146 40.52C53.1946 41.8333 52.8946 42.7733 52.3146 43.34C51.7346 43.9 50.768 44.18 49.4146 44.18ZM58.4335 44V28H61.9435C63.2902 28 64.2602 28.2767 64.8535 28.83C65.4535 29.3833 65.7768 30.2967 65.8235 31.57C65.8368 31.9967 65.8468 32.3833 65.8535 32.73C65.8602 33.07 65.8602 33.41 65.8535 33.75C65.8468 34.0833 65.8368 34.45 65.8235 34.85C65.7968 35.6633 65.6602 36.3267 65.4135 36.84C65.1668 37.3467 64.7802 37.73 64.2535 37.99L66.0635 44H63.3235L61.8235 38.42H61.0235V44H58.4335ZM61.0235 36.14H61.9335C62.3668 36.14 62.6868 36.0433 62.8935 35.85C63.1068 35.65 63.2235 35.36 63.2435 34.98C63.2635 34.6067 63.2768 34.22 63.2835 33.82C63.2902 33.4133 63.2902 33.01 63.2835 32.61C63.2768 32.2033 63.2635 31.8133 63.2435 31.44C63.2235 31.06 63.1068 30.7733 62.8935 30.58C62.6868 30.38 62.3702 30.28 61.9435 30.28H61.0235V36.14ZM78.9289 44V28H81.5189V41.72H85.2689V44H78.9289ZM93.669 44.18C92.3357 44.18 91.3723 43.9 90.779 43.34C90.1857 42.7733 89.8757 41.8333 89.849 40.52C89.8357 39.7933 89.8223 39.05 89.809 38.29C89.8023 37.53 89.799 36.7667 89.799 36C89.799 35.2267 89.8023 34.46 89.809 33.7C89.8223 32.94 89.8357 32.1933 89.849 31.46C89.8757 30.1533 90.1857 29.22 90.779 28.66C91.3723 28.1 92.3357 27.82 93.669 27.82C95.009 27.82 95.969 28.1 96.549 28.66C97.129 29.22 97.439 30.1533 97.479 31.46C97.499 32.2 97.5157 32.95 97.529 33.71C97.5423 34.47 97.549 35.2367 97.549 36.01C97.549 36.7767 97.5423 37.54 97.529 38.3C97.5157 39.0533 97.499 39.7933 97.479 40.52C97.439 41.8333 97.129 42.7733 96.549 43.34C95.969 43.9 95.009 44.18 93.669 44.18ZM93.669 42.07C94.0823 42.07 94.389 41.98 94.589 41.8C94.789 41.62 94.8923 41.35 94.899 40.99C94.9257 40.2367 94.9457 39.4367 94.959 38.59C94.9723 37.7367 94.979 36.87 94.979 35.99C94.979 35.1033 94.9723 34.2367 94.959 33.39C94.9457 32.5433 94.9257 31.7433 94.899 30.99C94.8923 30.6367 94.7857 30.3733 94.579 30.2C94.3723 30.02 94.069 29.93 93.669 29.93C93.269 29.93 92.9657 30.02 92.759 30.2C92.5523 30.3733 92.4423 30.6367 92.429 30.99C92.4023 31.7433 92.379 32.5433 92.359 33.39C92.3457 34.2367 92.339 35.1033 92.339 35.99C92.339 36.87 92.3457 37.7367 92.359 38.59C92.379 39.4367 92.4023 40.2367 92.429 40.99C92.4423 41.35 92.5523 41.62 92.759 41.8C92.9657 41.98 93.269 42.07 93.669 42.07ZM106.524 44.19C105.164 44.19 104.194 43.9067 103.614 43.34C103.04 42.7733 102.74 41.8333 102.714 40.52C102.7 39.8667 102.69 39.1533 102.684 38.38C102.677 37.6067 102.674 36.8133 102.674 36C102.674 35.1867 102.677 34.3933 102.684 33.62C102.69 32.84 102.7 32.12 102.714 31.46C102.734 30.3267 103.04 29.4367 103.634 28.79C104.234 28.1433 105.197 27.82 106.524 27.82C107.83 27.82 108.777 28.1033 109.364 28.67C109.95 29.23 110.26 30.1633 110.294 31.47C110.3 31.7033 110.304 31.9633 110.304 32.25C110.304 32.5367 110.3 32.8267 110.294 33.12C110.287 33.4067 110.28 33.6633 110.274 33.89H107.694C107.7 33.6167 107.707 33.31 107.714 32.97C107.72 32.6233 107.724 32.2767 107.724 31.93C107.724 31.5833 107.72 31.2733 107.714 31C107.707 30.6467 107.6 30.38 107.394 30.2C107.194 30.02 106.904 29.93 106.524 29.93C106.13 29.93 105.83 30.02 105.624 30.2C105.417 30.38 105.307 30.6467 105.294 31C105.267 31.7733 105.247 32.5833 105.234 33.43C105.227 34.2767 105.224 35.1333 105.224 36C105.224 36.8667 105.227 37.7233 105.234 38.57C105.247 39.41 105.267 40.2167 105.294 40.99C105.307 41.35 105.417 41.6233 105.624 41.81C105.83 41.99 106.13 42.08 106.524 42.08C106.937 42.08 107.25 41.99 107.464 41.81C107.677 41.6233 107.787 41.35 107.794 40.99C107.8 40.7167 107.804 40.4033 107.804 40.05C107.81 39.6967 107.81 39.3433 107.804 38.99C107.804 38.6367 107.8 38.3267 107.794 38.06H110.374C110.387 38.44 110.394 38.85 110.394 39.29C110.394 39.7233 110.387 40.1333 110.374 40.52C110.34 41.8333 110.024 42.7733 109.424 43.34C108.83 43.9067 107.864 44.19 106.524 44.19ZM114.804 44L116.894 28H121.054L123.144 44H120.494L120.134 40.33H117.814L117.454 44H114.804ZM118.054 38.05H119.894L119.544 34.53L119.254 30.28H118.694L118.404 34.53L118.054 38.05ZM128.739 44V30.28H126.309V28H133.759V30.28H131.319V44H128.739ZM138.38 44V28H140.97V44H138.38ZM150.093 44.18C148.76 44.18 147.796 43.9 147.203 43.34C146.61 42.7733 146.3 41.8333 146.273 40.52C146.26 39.7933 146.246 39.05 146.233 38.29C146.226 37.53 146.223 36.7667 146.223 36C146.223 35.2267 146.226 34.46 146.233 33.7C146.246 32.94 146.26 32.1933 146.273 31.46C146.3 30.1533 146.61 29.22 147.203 28.66C147.796 28.1 148.76 27.82 150.093 27.82C151.433 27.82 152.393 28.1 152.973 28.66C153.553 29.22 153.863 30.1533 153.903 31.46C153.923 32.2 153.94 32.95 153.953 33.71C153.966 34.47 153.973 35.2367 153.973 36.01C153.973 36.7767 153.966 37.54 153.953 38.3C153.94 39.0533 153.923 39.7933 153.903 40.52C153.863 41.8333 153.553 42.7733 152.973 43.34C152.393 43.9 151.433 44.18 150.093 44.18ZM150.093 42.07C150.506 42.07 150.813 41.98 151.013 41.8C151.213 41.62 151.316 41.35 151.323 40.99C151.35 40.2367 151.37 39.4367 151.383 38.59C151.396 37.7367 151.403 36.87 151.403 35.99C151.403 35.1033 151.396 34.2367 151.383 33.39C151.37 32.5433 151.35 31.7433 151.323 30.99C151.316 30.6367 151.21 30.3733 151.003 30.2C150.796 30.02 150.493 29.93 150.093 29.93C149.693 29.93 149.39 30.02 149.183 30.2C148.976 30.3733 148.866 30.6367 148.853 30.99C148.826 31.7433 148.803 32.5433 148.783 33.39C148.77 34.2367 148.763 35.1033 148.763 35.99C148.763 36.87 148.77 37.7367 148.783 38.59C148.803 39.4367 148.826 40.2367 148.853 40.99C148.866 41.35 148.976 41.62 149.183 41.8C149.39 41.98 149.693 42.07 150.093 42.07ZM159.208 44V28H163.028L164.158 33.09L165.318 41.72H165.818L165.348 34.56L165.138 28H167.638V44H163.638L162.488 38.64L161.588 30.26H161.048L161.488 37.9L161.708 44H159.208Z" fill="white"/>
</g>
<rect x="204" width="56" height="72" fill="#D5966C"/>
<path d="M228 24L236 36L228 48" stroke="white"/>
<defs>
<clipPath id="clip0_0_473">
<rect width="204" height="72" fill="white"/>
</clipPath>
</defs>
</svg>
