<svg width="248" height="72" viewBox="0 0 248 72" fill="none" xmlns="http://www.w3.org/2000/svg">
<g clip-path="url(#clip0_0_648)">
<rect width="194.585" height="72" fill="#151515"/>
<path d="M35.1432 44.18C33.8099 44.18 32.8465 43.9 32.2532 43.34C31.6599 42.7733 31.3499 41.8333 31.3232 40.52C31.3099 39.7933 31.2965 39.05 31.2832 38.29C31.2765 37.53 31.2732 36.7667 31.2732 36C31.2732 35.2267 31.2765 34.46 31.2832 33.7C31.2965 32.94 31.3099 32.1933 31.3232 31.46C31.3499 30.1533 31.6599 29.22 32.2532 28.66C32.8465 28.1 33.8099 27.82 35.1432 27.82C36.4832 27.82 37.4432 28.1 38.0232 28.66C38.6032 29.22 38.9132 30.1533 38.9532 31.46C38.9732 32.2 38.9899 32.95 39.0032 33.71C39.0165 34.47 39.0232 35.2367 39.0232 36.01C39.0232 36.7767 39.0165 37.54 39.0032 38.3C38.9899 39.0533 38.9732 39.7933 38.9532 40.52C38.9132 41.8333 38.6032 42.7733 38.0232 43.34C37.4432 43.9 36.4832 44.18 35.1432 44.18ZM35.1432 42.07C35.5565 42.07 35.8632 41.98 36.0632 41.8C36.2632 41.62 36.3665 41.35 36.3732 40.99C36.3999 40.2367 36.4199 39.4367 36.4332 38.59C36.4465 37.7367 36.4532 36.87 36.4532 35.99C36.4532 35.1033 36.4465 34.2367 36.4332 33.39C36.4199 32.5433 36.3999 31.7433 36.3732 30.99C36.3665 30.6367 36.2599 30.3733 36.0532 30.2C35.8465 30.02 35.5432 29.93 35.1432 29.93C34.7432 29.93 34.4399 30.02 34.2332 30.2C34.0265 30.3733 33.9165 30.6367 33.9032 30.99C33.8765 31.7433 33.8532 32.5433 33.8332 33.39C33.8199 34.2367 33.8132 35.1033 33.8132 35.99C33.8132 36.87 33.8199 37.7367 33.8332 38.59C33.8532 39.4367 33.8765 40.2367 33.9032 40.99C33.9165 41.35 34.0265 41.62 34.2332 41.8C34.4399 41.98 34.7432 42.07 35.1432 42.07ZM47.9378 44.18C46.5845 44.18 45.6145 43.9 45.0278 43.34C44.4412 42.7733 44.1378 41.8333 44.1178 40.52C44.0912 38.4467 44.0778 36.36 44.0778 34.26C44.0778 32.1533 44.0912 30.0667 44.1178 28H46.7078C46.6812 29.38 46.6645 30.81 46.6578 32.29C46.6578 33.7633 46.6612 35.2367 46.6678 36.71C46.6745 38.1833 46.6845 39.61 46.6978 40.99C46.6978 41.3433 46.8045 41.6133 47.0178 41.8C47.2312 41.98 47.5378 42.07 47.9378 42.07C48.3445 42.07 48.6478 41.98 48.8478 41.8C49.0545 41.6133 49.1578 41.3433 49.1578 40.99C49.1712 39.61 49.1812 38.1833 49.1878 36.71C49.2012 35.2367 49.2045 33.7633 49.1978 32.29C49.1978 30.81 49.1845 29.38 49.1578 28H51.7378C51.7712 30.0667 51.7878 32.1533 51.7878 34.26C51.7878 36.36 51.7712 38.4467 51.7378 40.52C51.7178 41.8333 51.4178 42.7733 50.8378 43.34C50.2578 43.9 49.2912 44.18 47.9378 44.18ZM56.9567 44V28H60.4667C61.8134 28 62.7834 28.2767 63.3767 28.83C63.9767 29.3833 64.3 30.2967 64.3467 31.57C64.36 31.9967 64.37 32.3833 64.3767 32.73C64.3834 33.07 64.3834 33.41 64.3767 33.75C64.37 34.0833 64.36 34.45 64.3467 34.85C64.32 35.6633 64.1834 36.3267 63.9367 36.84C63.69 37.3467 63.3034 37.73 62.7767 37.99L64.5867 44H61.8467L60.3467 38.42H59.5467V44H56.9567ZM59.5467 36.14H60.4567C60.89 36.14 61.21 36.0433 61.4167 35.85C61.63 35.65 61.7467 35.36 61.7667 34.98C61.7867 34.6067 61.8 34.22 61.8067 33.82C61.8134 33.4133 61.8134 33.01 61.8067 32.61C61.8 32.2033 61.7867 31.8133 61.7667 31.44C61.7467 31.06 61.63 30.7733 61.4167 30.58C61.21 30.38 60.8934 30.28 60.4667 30.28H59.5467V36.14ZM31.3832 68V52H33.9732V65.72H37.7232V68H31.3832ZM46.1233 68.18C44.79 68.18 43.8266 67.9 43.2333 67.34C42.64 66.7733 42.33 65.8333 42.3033 64.52C42.29 63.7933 42.2766 63.05 42.2633 62.29C42.2566 61.53 42.2533 60.7667 42.2533 60C42.2533 59.2267 42.2566 58.46 42.2633 57.7C42.2766 56.94 42.29 56.1933 42.3033 55.46C42.33 54.1533 42.64 53.22 43.2333 52.66C43.8266 52.1 44.79 51.82 46.1233 51.82C47.4633 51.82 48.4233 52.1 49.0033 52.66C49.5833 53.22 49.8933 54.1533 49.9333 55.46C49.9533 56.2 49.97 56.95 49.9833 57.71C49.9966 58.47 50.0033 59.2367 50.0033 60.01C50.0033 60.7767 49.9966 61.54 49.9833 62.3C49.97 63.0533 49.9533 63.7933 49.9333 64.52C49.8933 65.8333 49.5833 66.7733 49.0033 67.34C48.4233 67.9 47.4633 68.18 46.1233 68.18ZM46.1233 66.07C46.5366 66.07 46.8433 65.98 47.0433 65.8C47.2433 65.62 47.3466 65.35 47.3533 64.99C47.38 64.2367 47.4 63.4367 47.4133 62.59C47.4266 61.7367 47.4333 60.87 47.4333 59.99C47.4333 59.1033 47.4266 58.2367 47.4133 57.39C47.4 56.5433 47.38 55.7433 47.3533 54.99C47.3466 54.6367 47.24 54.3733 47.0333 54.2C46.8266 54.02 46.5233 53.93 46.1233 53.93C45.7233 53.93 45.42 54.02 45.2133 54.2C45.0066 54.3733 44.8966 54.6367 44.8833 54.99C44.8566 55.7433 44.8333 56.5433 44.8133 57.39C44.8 58.2367 44.7933 59.1033 44.7933 59.99C44.7933 60.87 44.8 61.7367 44.8133 62.59C44.8333 63.4367 44.8566 64.2367 44.8833 64.99C44.8966 65.35 45.0066 65.62 45.2133 65.8C45.42 65.98 45.7233 66.07 46.1233 66.07ZM58.978 68.19C57.618 68.19 56.648 67.9067 56.068 67.34C55.4946 66.7733 55.1946 65.8333 55.168 64.52C55.1546 63.8667 55.1446 63.1533 55.138 62.38C55.1313 61.6067 55.128 60.8133 55.128 60C55.128 59.1867 55.1313 58.3933 55.138 57.62C55.1446 56.84 55.1546 56.12 55.168 55.46C55.188 54.3267 55.4946 53.4367 56.088 52.79C56.688 52.1433 57.6513 51.82 58.978 51.82C60.2846 51.82 61.2313 52.1033 61.818 52.67C62.4046 53.23 62.7146 54.1633 62.748 55.47C62.7546 55.7033 62.758 55.9633 62.758 56.25C62.758 56.5367 62.7546 56.8267 62.748 57.12C62.7413 57.4067 62.7346 57.6633 62.728 57.89H60.148C60.1546 57.6167 60.1613 57.31 60.168 56.97C60.1746 56.6233 60.178 56.2767 60.178 55.93C60.178 55.5833 60.1746 55.2733 60.168 55C60.1613 54.6467 60.0546 54.38 59.848 54.2C59.648 54.02 59.358 53.93 58.978 53.93C58.5846 53.93 58.2846 54.02 58.078 54.2C57.8713 54.38 57.7613 54.6467 57.748 55C57.7213 55.7733 57.7013 56.5833 57.688 57.43C57.6813 58.2767 57.678 59.1333 57.678 60C57.678 60.8667 57.6813 61.7233 57.688 62.57C57.7013 63.41 57.7213 64.2167 57.748 64.99C57.7613 65.35 57.8713 65.6233 58.078 65.81C58.2846 65.99 58.5846 66.08 58.978 66.08C59.3913 66.08 59.7046 65.99 59.918 65.81C60.1313 65.6233 60.2413 65.35 60.248 64.99C60.2546 64.7167 60.258 64.4033 60.258 64.05C60.2646 63.6967 60.2646 63.3433 60.258 62.99C60.258 62.6367 60.2546 62.3267 60.248 62.06H62.828C62.8413 62.44 62.848 62.85 62.848 63.29C62.848 63.7233 62.8413 64.1333 62.828 64.52C62.7946 65.8333 62.478 66.7733 61.878 67.34C61.2846 67.9067 60.318 68.19 58.978 68.19ZM67.2587 68L69.3487 52H73.5087L75.5987 68H72.9487L72.5887 64.33H70.2687L69.9087 68H67.2587ZM70.5087 62.05H72.3487L71.9987 58.53L71.7087 54.28H71.1487L70.8587 58.53L70.5087 62.05ZM81.1929 68V54.28H78.7629V52H86.2129V54.28H83.7729V68H81.1929ZM90.8345 68V52H93.4245V68H90.8345ZM102.547 68.18C101.214 68.18 100.251 67.9 99.6573 67.34C99.064 66.7733 98.754 65.8333 98.7273 64.52C98.714 63.7933 98.7006 63.05 98.6873 62.29C98.6806 61.53 98.6773 60.7667 98.6773 60C98.6773 59.2267 98.6806 58.46 98.6873 57.7C98.7006 56.94 98.714 56.1933 98.7273 55.46C98.754 54.1533 99.064 53.22 99.6573 52.66C100.251 52.1 101.214 51.82 102.547 51.82C103.887 51.82 104.847 52.1 105.427 52.66C106.007 53.22 106.317 54.1533 106.357 55.46C106.377 56.2 106.394 56.95 106.407 57.71C106.421 58.47 106.427 59.2367 106.427 60.01C106.427 60.7767 106.421 61.54 106.407 62.3C106.394 63.0533 106.377 63.7933 106.357 64.52C106.317 65.8333 106.007 66.7733 105.427 67.34C104.847 67.9 103.887 68.18 102.547 68.18ZM102.547 66.07C102.961 66.07 103.267 65.98 103.467 65.8C103.667 65.62 103.771 65.35 103.777 64.99C103.804 64.2367 103.824 63.4367 103.837 62.59C103.851 61.7367 103.857 60.87 103.857 59.99C103.857 59.1033 103.851 58.2367 103.837 57.39C103.824 56.5433 103.804 55.7433 103.777 54.99C103.771 54.6367 103.664 54.3733 103.457 54.2C103.251 54.02 102.947 53.93 102.547 53.93C102.147 53.93 101.844 54.02 101.637 54.2C101.431 54.3733 101.321 54.6367 101.307 54.99C101.281 55.7433 101.257 56.5433 101.237 57.39C101.224 58.2367 101.217 59.1033 101.217 59.99C101.217 60.87 101.224 61.7367 101.237 62.59C101.257 63.4367 101.281 64.2367 101.307 64.99C101.321 65.35 101.431 65.62 101.637 65.8C101.844 65.98 102.147 66.07 102.547 66.07ZM111.662 68V52H115.482L116.612 57.09L117.772 65.72H118.272L117.802 58.56L117.592 52H120.092V68H116.092L114.942 62.64L114.042 54.26H113.502L113.942 61.9L114.162 68H111.662Z" fill="white"/>
</g>
<rect x="194.585" width="53.4154" height="72" fill="#D5966C"/>
<path d="M217.477 24L225.108 36L217.477 48" stroke="white"/>
<defs>
<clipPath id="clip0_0_648">
<rect width="194.585" height="72" fill="white"/>
</clipPath>
</defs>
</svg>
